<?xml version="1.0" standalone="no"?>
<!DOCTYPE svg PUBLIC "-//W3C//DTD SVG 20010904//EN"
 "http://www.w3.org/TR/2001/REC-SVG-20010904/DTD/svg10.dtd">
<svg version="1.0" xmlns="http://www.w3.org/2000/svg"
 width="500.000000pt" height="500.000000pt" viewBox="0 0 500.000000 500.000000"
 preserveAspectRatio="xMidYMid meet">

<g transform="translate(0.000000,500.000000) scale(0.100000,-0.100000)"
fill="#000000" stroke="none">
<path d="M2295 4490 c-692 -79 -1282 -490 -1588 -1105 -272 -548 -273 -1207
-3 -1760 261 -532 724 -910 1298 -1059 201 -52 270 -61 498 -60 225 1 323 13
519 65 553 147 1020 531 1272 1044 147 301 203 546 203 890 0 218 -12 314 -63
510 -147 562 -543 1037 -1079 1293 -254 120 -511 180 -802 187 -96 2 -211 0
-255 -5z m350 -100 c813 -93 1467 -710 1606 -1515 29 -173 32 -439 5 -600 -49
-296 -165 -572 -344 -815 -31 -41 -114 -134 -186 -205 -254 -253 -567 -423
-900 -489 -255 -51 -434 -56 -671 -20 -770 119 -1382 711 -1526 1476 -30 161
-37 434 -15 588 61 420 246 785 542 1070 301 290 664 462 1074 509 108 12 310
13 415 1z"/>
<path d="M1630 2872 l0 -1302 -312 -2 -313 -3 -3 -52 -3 -53 315 0 316 0 0
-225 0 -226 58 3 57 3 3 223 2 222 1040 0 1040 0 0 24 c0 22 -5 23 -73 29
-293 25 -607 221 -781 489 -174 267 -223 614 -129 913 127 402 467 691 892
756 67 10 81 16 81 31 0 16 -9 18 -77 18 -280 -1 -624 -185 -814 -435 -95
-125 -158 -253 -201 -405 -26 -95 -37 -364 -18 -479 52 -322 260 -624 546
-791 l69 -40 -788 0 -787 0 0 324 0 323 63 7 c381 42 703 296 825 651 42 124
55 220 49 360 -12 265 -107 480 -292 660 -172 168 -389 260 -642 272 l-123 6
0 -1301z m335 1157 c159 -49 320 -155 421 -277 68 -83 135 -212 170 -328 24
-77 27 -107 28 -224 0 -110 -4 -151 -23 -220 -77 -292 -286 -515 -570 -610
-54 -18 -126 -34 -168 -37 l-73 -6 0 868 0 868 73 -6 c40 -4 104 -16 142 -28z"/>
</g>
</svg>
